<svg width="40" height="40" viewBox="0 0 40 40" fill="none" xmlns="http://www.w3.org/2000/svg">
<path fill-rule="evenodd" clip-rule="evenodd" d="M31.6667 35H8.33333C6.4925 35 5 33.5075 5 31.6667V8.33333C5 6.4925 6.4925 5 8.33333 5H31.6667C33.5075 5 35 6.4925 35 8.33333V31.6667C35 33.5075 33.5075 35 31.6667 35Z" fill="#212121"/>
<path fill-rule="evenodd" clip-rule="evenodd" d="M28.5473 28.3334H23.1831L11.5239 11.6667H16.8881L28.5473 28.3334ZM23.8223 26.92H25.9581L16.2489 13.08H14.1131L23.8223 26.92Z" fill="white"/>
<path fill-rule="evenodd" clip-rule="evenodd" d="M13.2215 28.3333L19.224 21.38L18.439 20.3392L11.519 28.3333H13.2215Z" fill="white"/>
<path fill-rule="evenodd" clip-rule="evenodd" d="M20.375 18.1009L21.1292 19.175L27.6133 11.6667H25.9467L20.375 18.1009Z" fill="white"/>
</svg>
