<svg width="40" height="40" viewBox="0 0 40 40" fill="none" xmlns="http://www.w3.org/2000/svg">
<path d="M35 30.8333C35 33.135 33.135 35 30.8333 35H9.16666C6.86583 35 5 33.135 5 30.8333V9.16666C5 6.865 6.86583 5 9.16666 5H30.8333C33.135 5 35 6.865 35 9.16666V30.8333Z" fill="#339AF0"/>
<path d="M28.6398 20.8333H25.8332V31.6666H21.6665V20.8333H19.1665V17.5H21.6665V15.4916C21.6682 12.5683 22.8823 10.8333 26.3265 10.8333H29.1665V14.1666H27.2607C25.9198 14.1666 25.8332 14.6666 25.8332 15.6025V17.5H29.1665L28.6398 20.8333Z" fill="white"/>
</svg>
