<svg width="40" height="40" viewBox="0 0 40 40" fill="none" xmlns="http://www.w3.org/2000/svg">
<path d="M28.3475 34.9916L11.6809 35.0075C8.0142 35.0108 5.0117 32.0141 5.00754 28.3475L4.9917 11.6808C4.98837 8.01414 7.98504 5.01164 11.6517 5.00747L28.3184 4.99164C31.985 4.98831 34.9875 7.98497 34.9917 11.6516L35.0075 28.3183C35.0117 31.9858 32.0142 34.9883 28.3475 34.9916Z" fill="url(#paint0_radial_1010_3006)"/>
<path d="M28.3475 34.9916L11.6809 35.0075C8.0142 35.0108 5.0117 32.0141 5.00754 28.3475L4.9917 11.6808C4.98837 8.01414 7.98504 5.01164 11.6517 5.00747L28.3184 4.99164C31.985 4.98831 34.9875 7.98497 34.9917 11.6516L35.0075 28.3183C35.0117 31.9858 32.0142 34.9883 28.3475 34.9916Z" fill="url(#paint1_radial_1010_3006)"/>
<path d="M19.9998 25.8334C16.784 25.8334 14.1665 23.2167 14.1665 20C14.1665 16.7834 16.784 14.1667 19.9998 14.1667C23.2157 14.1667 25.8332 16.7834 25.8332 20C25.8332 23.2167 23.2157 25.8334 19.9998 25.8334ZM19.9998 15.8334C17.7023 15.8334 15.8332 17.7025 15.8332 20C15.8332 22.2975 17.7023 24.1667 19.9998 24.1667C22.2973 24.1667 24.1665 22.2975 24.1665 20C24.1665 17.7025 22.2973 15.8334 19.9998 15.8334Z" fill="white"/>
<path d="M26.25 15C26.9404 15 27.5 14.4404 27.5 13.75C27.5 13.0596 26.9404 12.5 26.25 12.5C25.5596 12.5 25 13.0596 25 13.75C25 14.4404 25.5596 15 26.25 15Z" fill="white"/>
<path d="M24.9998 30.8334H14.9998C11.784 30.8334 9.1665 28.2167 9.1665 25V15C9.1665 11.7834 11.784 9.16669 14.9998 9.16669H24.9998C28.2157 9.16669 30.8332 11.7834 30.8332 15V25C30.8332 28.2167 28.2157 30.8334 24.9998 30.8334ZM14.9998 10.8334C12.7023 10.8334 10.8332 12.7025 10.8332 15V25C10.8332 27.2975 12.7023 29.1667 14.9998 29.1667H24.9998C27.2973 29.1667 29.1665 27.2975 29.1665 25V15C29.1665 12.7025 27.2973 10.8334 24.9998 10.8334H14.9998Z" fill="white"/>
<defs>
<radialGradient id="paint0_radial_1010_3006" cx="0" cy="0" r="1" gradientUnits="userSpaceOnUse" gradientTransform="translate(16.15 35.0291) scale(37.4158 37.4158)">
<stop stop-color="#FFDD55"/>
<stop offset="0.328" stop-color="#FF543F"/>
<stop offset="0.348" stop-color="#FC5245"/>
<stop offset="0.504" stop-color="#E64771"/>
<stop offset="0.643" stop-color="#D53E91"/>
<stop offset="0.761" stop-color="#CC39A4"/>
<stop offset="0.841" stop-color="#C837AB"/>
</radialGradient>
<radialGradient id="paint1_radial_1010_3006" cx="0" cy="0" r="1" gradientUnits="userSpaceOnUse" gradientTransform="translate(9.8217 4.61689) scale(24.8442 16.5537)">
<stop stop-color="#4168C9"/>
<stop offset="0.999" stop-color="#4168C9" stop-opacity="0"/>
</radialGradient>
</defs>
</svg>
