 <svg
                xmlns="http://www.w3.org/2000/svg"
                width="23"
                height="22"
                viewBox="0 0 23 22"
                fill="none"
              >
                <g clip-path="url(#clip0_117_1482)">
                  <path
                    d="M22.5 11.0673C22.5 4.95404 17.5748 -0.00146484 11.5 -0.00146484C5.4225 -8.98436e-05 0.497253 4.95404 0.497253 11.0687C0.497253 16.592 4.5205 21.1708 9.7785 22.0013V14.2669H6.98725V11.0687H9.78125V8.62804C9.78125 5.85466 11.4244 4.32291 13.9365 4.32291C15.141 4.32291 16.3991 4.53878 16.3991 4.53878V7.26129H15.0118C13.6464 7.26129 13.2201 8.11516 13.2201 8.99104V11.0673H16.2699L15.7831 14.2655H13.2188V21.9999C18.4768 21.1694 22.5 16.5907 22.5 11.0673Z"
                    fill="#D9D9D9"
                  />
                </g>
                <defs>
                  <clipPath id="clip0_117_1482">
                    <rect
                      width="22"
                      height="22"
                      fill="white"
                      transform="translate(0.5)"
                    />
                  </clipPath>
                </defs>
              </svg>