<svg width="40" height="40" viewBox="0 0 40 40" fill="none" xmlns="http://www.w3.org/2000/svg">
<path fill-rule="evenodd" clip-rule="evenodd" d="M4.05664 36.0859L6.30164 27.89C4.91664 25.4917 4.18831 22.77 4.18914 19.9825C4.19331 11.2617 11.29 4.16669 20.0116 4.16669C24.2441 4.16835 28.2158 5.81585 31.2033 8.80502C34.19 11.795 35.835 15.7684 35.8333 19.995C35.83 28.7159 28.7316 35.8117 20.0116 35.8117H20.005C17.3575 35.8109 14.755 35.1467 12.4441 33.8859L4.05664 36.0859Z" fill="white"/>
<path fill-rule="evenodd" clip-rule="evenodd" d="M4.05644 36.5025C3.94644 36.5025 3.83977 36.4592 3.76061 36.3792C3.65644 36.2733 3.61561 36.1192 3.65477 35.9767L5.85394 27.9467C4.49061 25.525 3.77144 22.775 3.77311 19.9833C3.77644 11.0317 11.0606 3.75 20.0114 3.75C24.3531 3.75167 28.4323 5.4425 31.4981 8.51083C34.5639 11.58 36.2514 15.6583 36.2498 19.995C36.2464 28.9458 28.9614 36.2283 20.0114 36.2283C17.3539 36.2275 14.7248 35.5717 12.3914 34.3308L4.16227 36.4883C4.12727 36.4983 4.09227 36.5025 4.05644 36.5025Z" fill="white"/>
<path fill-rule="evenodd" clip-rule="evenodd" d="M20.0118 4.16665C24.2443 4.16831 28.216 5.81581 31.2035 8.80498C34.1902 11.795 35.8352 15.7683 35.8335 19.995C35.8302 28.7158 28.7318 35.8116 20.0118 35.8116H20.0052C17.3577 35.8108 14.7552 35.1466 12.4443 33.8858L4.05682 36.0858L6.30182 27.89C4.91682 25.4916 4.18849 22.77 4.18932 19.9825C4.19349 11.2616 11.2902 4.16665 20.0118 4.16665ZM20.0118 3.33331C10.8318 3.33331 3.36015 10.8016 3.35599 19.9825C3.35515 22.7883 4.06349 25.5533 5.40682 28.0008L3.25265 35.8666C3.17432 36.1541 3.25432 36.4608 3.46432 36.6725C3.62265 36.8325 3.83682 36.92 4.05682 36.92C4.12765 36.92 4.19849 36.9108 4.26849 36.8925L12.341 34.7758C14.6977 35.9991 17.3393 36.645 20.0052 36.6458C29.1918 36.6458 36.6635 29.1766 36.6677 19.9958C36.6693 15.5466 34.9385 11.3633 31.7943 8.21665C28.6485 5.06915 24.4643 3.33498 20.0118 3.33331Z" fill="#CFD8DC"/>
<path fill-rule="evenodd" clip-rule="evenodd" d="M29.3132 10.6933C26.8299 8.20832 23.529 6.83915 20.0157 6.83832C12.7624 6.83832 6.8632 12.735 6.85986 19.9833C6.85903 22.4675 7.55403 24.8858 8.8707 26.98L9.18403 27.4775L7.85486 32.3283L12.8324 31.0233L13.3132 31.3083C15.3315 32.5066 17.6465 33.14 20.0065 33.1408H20.0115C27.2599 33.1408 33.159 27.2433 33.1615 19.9942C33.1624 16.4817 31.7965 13.1783 29.3132 10.6933Z" fill="#40C351"/>
<path fill-rule="evenodd" clip-rule="evenodd" d="M16.0565 13.3709C15.7607 12.7125 15.449 12.6992 15.1665 12.6875C14.9357 12.6775 14.6724 12.6784 14.409 12.6784C14.1457 12.6784 13.7174 12.7775 13.3549 13.1734C12.9924 13.5692 11.9707 14.525 11.9707 16.47C11.9707 18.415 13.3874 20.295 13.5849 20.5584C13.7824 20.8217 16.3199 24.9409 20.3382 26.5259C23.6774 27.8425 24.3574 27.5809 25.0824 27.515C25.8074 27.4492 27.4215 26.5592 27.7507 25.6359C28.0799 24.7125 28.0799 23.9217 27.9815 23.7567C27.8824 23.5917 27.619 23.4934 27.224 23.295C26.829 23.0967 24.8849 22.1409 24.5224 22.0092C24.1599 21.8775 23.8965 21.8117 23.6324 22.2075C23.369 22.6025 22.6115 23.4934 22.3807 23.7567C22.1499 24.0209 21.919 24.0542 21.524 23.8559C21.129 23.6575 19.8557 23.2409 18.3449 21.8942C17.1699 20.8467 16.3765 19.5525 16.1457 19.1567C15.9149 18.7617 16.1207 18.5475 16.319 18.35C16.4965 18.1725 16.714 17.8884 16.9124 17.6575C17.1099 17.4267 17.1757 17.2617 17.3074 16.9984C17.439 16.7342 17.3732 16.5034 17.274 16.3059C17.1765 16.1075 16.4082 14.1525 16.0565 13.3709Z" fill="white"/>
</svg>
